Coordinates
version=1
nRows=14
nColumns=24
inDegrees=yes

Units are S.I. units (second, meters, Newtons, ...)
Angles are in degrees.

endheader
time	pelvis_tilt	pelvis_list	pelvis_rotation	pelvis_tx	pelvis_ty	pelvis_tz	hip_flexion_r	hip_adduction_r	hip_rotation_r	knee_angle_r	ankle_angle_r	subtalar_angle_r	mtp_angle_r	hip_flexion_l	hip_adduction_l	hip_rotation_l	knee_angle_l	ankle_angle_l	subtalar_angle_l	mtp_angle_l	lumbar_extension	lumbar_bending	lumbar_rotation
      0.68616667	     -3.20294076	     -1.27489013	      3.84009980	     -0.43161097	      1.04549529	      0.30852638	     19.59321883	      2.02460644	     -3.19443656	    -30.52398450	     16.57675702	     -6.24465064	      0.80144399	     22.08432146	     -6.14149641	     -5.54359067	    -76.08121916	      4.77749494	      7.21947581	      3.96946856	     -5.59722694	      3.98925370	      2.08102479
      0.69033333	     -3.20996800	     -1.11675270	      3.79944507	     -0.42568370	      1.04700285	      0.30831357	     19.01253155	      1.87439180	     -3.14936570	    -30.08155993	     16.69118831	     -6.11618317	      0.81090688	     22.62911625	     -5.89046291	     -5.78528209	    -75.64514643	      5.13559500	      7.68126482	      3.95529879	     -5.56432286	      3.85698126	      2.15275890
      0.69450000	     -3.20727212	     -0.96305816	      3.74574242	     -0.41974720	      1.04849201	      0.30810776	     18.41780217	      1.73031955	     -3.10104280	    -29.62859567	     16.82676353	     -5.96509416	      0.82792680	     23.14438671	     -5.65487286	     -6.04113310	    -75.14551956	      5.48723396	      8.19109526	      3.93378314	     -5.53778425	      3.73066655	      2.27488149
      0.69866667	     -3.20616599	     -0.80120370	      3.68700385	     -0.41381385	      1.04998168	      0.30789572	     17.81908798	      1.57807398	     -3.04134574	    -29.15831068	     16.91488886	     -5.84109161	      0.84725991	     23.64028610	     -5.40732553	     -6.29112919	    -74.57215439	      5.83501896	      8.70583538	      3.91977263	     -5.51603143	      3.58543758	      2.37637545
      0.70283333	     -3.20842854	     -0.64592200	      3.62016817	     -0.40787131	      1.05142853	      0.30768413	     17.22245190	      1.43422284	     -2.97716113	    -28.67994134	     16.99369091	     -5.73559521	      0.86569912	     24.12156284	     -5.17237691	     -6.54387348	    -73.93787749	      6.17620661	      9.24401833	      3.91726280	     -5.48552517	      3.45470138	      2.46525794
      0.70700000	     -3.22178600	     -0.47343921	      3.54300531	     -0.40193649	      1.05282381	      0.30747792	     16.64250496	      1.27071982	     -2.90371733	    -28.20753041	     17.05012368	     -5.63350708	      0.88028464	     24.59309411	     -4.91912689	     -6.79853336	    -73.23516514	      6.50413645	      9.78164554	      3.92388064	     -5.44567114	      3.30094498	      2.53689822
      0.71116667	     -3.21137421	     -0.31583959	      3.46125316	     -0.39599614	      1.05424080	      0.30725875	     16.02797485	      1.12492903	     -2.82466478	    -27.70949317	     17.10798420	     -5.53570131	      0.89623513	     25.02178880	     -4.68759746	     -7.04766729	    -72.47374037	      6.82405037	     10.31722234	      3.93437079	     -5.43413892	      3.17027162	      2.63370347
      0.71533333	     -3.21142138	     -0.15593889	      3.37038877	     -0.39005722	      1.05558067	      0.30706380	     15.42846405	      0.97771187	     -2.73988383	    -27.21379134	     17.15457254	     -5.44613823	      0.91222304	     25.44454894	     -4.45958669	     -7.29700847	    -71.65846785	      7.13614464	     10.84140124	      3.94799354	     -5.41148713	      3.02447049	      2.73703039
      0.71950000	     -3.21607156	      0.01213168	      3.27641423	     -0.38411758	      1.05687256	      0.30686447	     14.83631455	      0.82073455	     -2.65073888	    -26.72145959	     17.19665418	     -5.35757450	      0.92761459	     25.85174490	     -4.22200605	     -7.53797814	    -70.78117482	      7.42961752	     11.33180369	      3.96326944	     -5.38359534	      2.87149773	      2.84080551
      0.72366667	     -3.20836334	      0.15682374	      3.17259381	     -0.37817841	      1.05812759	      0.30667762	     14.22798019	      0.69202979	     -2.54923938	    -26.21305859	     17.25121774	     -5.28226617	      0.95105762	     26.23184676	     -4.02031549	     -7.77505272	    -69.86013227	      7.72004797	     11.80469845	      3.98430421	     -5.36692095	      2.73739986	      3.00553195
      0.72783333	     -3.24412465	      0.32028016	      3.07108273	     -0.37225806	      1.05924986	      0.30646942	     13.68015535	      0.53504104	     -2.45601553	    -25.73108490	     17.25241307	     -5.21335191	      0.96225471	     26.64354104	     -3.78481253	     -7.98872684	    -68.88330205	      7.98422285	     12.20512775	      3.99973053	     -5.30579578	      2.57923893	      3.07982493
      0.73200000	     -3.22303387	      0.46778341	      2.95793694	     -0.36635168	      1.06041898	      0.30628568	     13.06431734	      0.40385282	     -2.33788368	    -25.22420183	     17.30118738	     -5.15476527	      0.98679713	     26.97427983	     -3.58249138	     -8.20254217	    -67.85649508	      8.24867473	     12.60700249	      4.02539845	     -5.31584200	      2.44661179	      3.27004397
      0.73616667	     -3.27630229	      0.63483898	      2.84620431	     -0.36043573	      1.06139557	      0.30608626	     12.54612457	      0.24005132	     -2.23971960	    -24.75478995	     17.30639137	     -5.09799519	      0.99812181	     27.36756694	     -3.34714822	     -8.39705826	    -66.77516995	      8.48371478	     12.91621314	      4.04141871	     -5.22872743	      2.28945624	      3.35173610
      0.74033333	     -3.30592922	      0.78234974	      2.73472526	     -0.35454768	      1.06234132	      0.30588376	     12.00225807	      0.09936415	     -2.13405325	    -24.27689211	     17.32527034	     -5.04623360	      1.00884082	     27.72485194	     -3.13555915	     -8.56950585	    -65.65525017	      8.71283921	     13.19389470	      4.05767005	     -5.17417109	      2.15213119	      3.46641378
